<?xml version="1.0" encoding="utf-8"?>
<!-- Generator: Adobe Illustrator 18.0.0, SVG Export Plug-In . SVG Version: 6.00 Build 0)  -->
<!DOCTYPE svg PUBLIC "-//W3C//DTD SVG 1.1//EN" "http://www.w3.org/Graphics/SVG/1.1/DTD/svg11.dtd">
<svg version="1.1" id="Layer_1" xmlns="http://www.w3.org/2000/svg" xmlns:xlink="http://www.w3.org/1999/xlink" x="0px" y="0px"
	 viewBox="0 0 27 36.1" enable-background="new 0 0 27 36.1" xml:space="preserve">
<g>
	<path fill="#616E7D" d="M13.5,0.9c-0.2,0-0.5,0.2-0.6,0.4l-2.6,4.4h6.5l-2.6-4.4C13.9,1.1,13.7,0.9,13.5,0.9z"/>
	<path fill="#616E7D" d="M18.5,27.6c0.1-0.1,0.1-0.3,0.2-0.4l4.2,7.4c0.1,0.1,0.2,0.2,0.4,0.2l0.1,0c0.2-0.1,0.3-0.2,0.3-0.4l0-10
		c0-0.1,0-0.2-0.1-0.2l-3-4.4c-0.1-0.1-0.2-0.2-0.3-0.2c0-0.7,0.1-1.5,0.1-2.2l0-0.9c0-1.3,0-2.5,0-3.7c0-0.2,0-0.4,0-0.6
		c0-0.4,0-0.7-0.1-1.2c-0.1-0.3-0.1-0.6-0.2-0.8c-0.3-1.1-1-2.1-1.8-2.9l0,0L17,6h-7L8.7,7.3L8.6,7.4C7.8,8.2,7.3,9.1,7,10.2
		c0,0.1-0.1,0.3-0.1,0.4c-0.1,0.5-0.2,1.1-0.2,1.6c0,0.1,0,0.2,0,0.2c0,0.2,0,0.5,0,0.7c0,0.9,0,1.8,0,2.7c0,0.5,0,1,0,1.5
		c0,0.8,0,1.5,0.1,2.2c-0.1,0-0.2,0.1-0.3,0.2l-3,4.4c0,0.1-0.1,0.2-0.1,0.2l0,10c0,0.2,0.1,0.4,0.3,0.4l0.1,0
		c0.2,0,0.3-0.1,0.4-0.2l4.2-7.4c0.1,0.1,0.1,0.3,0.1,0.4c1,2.4,2.4,4,3.9,4.5l-1-4.6c0-0.1,0-0.1,0-0.2l1.7-6.7
		c0-0.2,0.2-0.3,0.4-0.3h0c0.2,0,0.4,0.1,0.4,0.3l1.6,6.6c0,0.1,0,0.1,0,0.2l-1,4.7C16.1,31.6,17.5,30,18.5,27.6z M13.5,19.2
		c-2.5,0-4.5-2-4.5-4.5c0-2.5,2-4.5,4.5-4.5c2.5,0,4.5,2,4.5,4.5C18,17.2,16,19.2,13.5,19.2z"/>
	<polygon fill="#82BFAB" points="12.9,32.2 13.5,35.1 14.1,32.2 15.1,27.3 13.5,20.7 11.8,27.4 	"/>
	<polygon fill="#FFFFFF" points="10.2,5.8 10,6 17,6 16.7,5.8 	"/>
	<path fill="#AAD3C7" d="M13.5,11.1c-2,0-3.6,1.6-3.6,3.6c0,2,1.6,3.6,3.6,3.6c2,0,3.6-1.6,3.6-3.6C17.1,12.7,15.5,11.1,13.5,11.1z
		 M11.7,16.1c-0.1,0-0.1,0-0.1-0.1c-0.1-0.1-0.1-0.2,0-0.3l2.5-3.1c0.1-0.1,0.2-0.1,0.3,0c0.1,0.1,0.1,0.2,0,0.3L11.9,16
		C11.8,16.1,11.8,16.1,11.7,16.1z M15.4,13.9l-2.5,3.1c0,0.1-0.1,0.1-0.2,0.1c-0.1,0-0.1,0-0.1-0.1c-0.1-0.1-0.1-0.2,0-0.3l2.5-3.1
		c0.1-0.1,0.2-0.1,0.3,0C15.5,13.7,15.5,13.8,15.4,13.9z"/>
	<path fill="#82BFAB" d="M13.5,10.2c-2.5,0-4.5,2-4.5,4.5c0,2.5,2,4.5,4.5,4.5c2.5,0,4.5-2,4.5-4.5C18,12.2,16,10.2,13.5,10.2z
		 M13.5,18.3c-2,0-3.6-1.6-3.6-3.6c0-2,1.6-3.6,3.6-3.6c2,0,3.6,1.6,3.6,3.6C17.1,16.7,15.5,18.3,13.5,18.3z"/>
	<path fill="#FFFFFF" d="M14,12.6l-2.5,3.1c-0.1,0.1-0.1,0.3,0,0.3c0,0,0.1,0.1,0.1,0.1c0.1,0,0.1,0,0.2-0.1l2.5-3.1
		c0.1-0.1,0.1-0.3,0-0.3C14.2,12.5,14.1,12.5,14,12.6z"/>
	<path fill="#FFFFFF" d="M15,13.6l-2.5,3.1c-0.1,0.1-0.1,0.3,0,0.3c0,0,0.1,0.1,0.1,0.1c0.1,0,0.1,0,0.2-0.1l2.5-3.1
		c0.1-0.1,0.1-0.3,0-0.3C15.3,13.5,15.1,13.5,15,13.6z"/>
</g>
</svg>
